<?xml version="1.0" standalone="no"?>
<!DOCTYPE svg PUBLIC "-//W3C//DTD SVG 20010904//EN"
 "http://www.w3.org/TR/2001/REC-SVG-20010904/DTD/svg10.dtd">
<svg version="1.0" xmlns="http://www.w3.org/2000/svg"
 width="450.000000pt" height="450.000000pt" viewBox="0 0 450.000000 450.000000"
 preserveAspectRatio="xMidYMid meet">
<metadata>
Created by potrace 1.14, written by Peter Selinger 2001-2017
</metadata>
<g transform="translate(0.000000,450.000000) scale(0.100000,-0.100000)"
fill="#000000" stroke="none">
<path d="M2275 4353 c-88 -7 -196 -12 -240 -12 -116 0 -356 -63 -465 -123
-151 -83 -203 -150 -255 -333 -25 -85 -36 -107 -75 -150 -64 -71 -106 -134
-145 -218 -74 -160 -134 -684 -101 -876 21 -121 21 -119 -19 -204 -39 -82 -41
-106 -20 -222 8 -44 14 -109 15 -144 0 -35 2 -62 4 -60 4 4 19 145 18 169 0 8
-4 35 -8 59 l-7 45 39 -24 c50 -30 100 -76 125 -117 25 -40 44 -150 29 -167
-5 -7 -6 -16 -2 -20 4 -4 -1 -13 -11 -20 -12 -9 -19 -33 -23 -77 -4 -47 -3
-60 5 -49 6 8 11 24 11 35 0 11 8 33 19 48 l18 28 6 -38 c4 -21 7 -57 7 -80 0
-23 5 -45 10 -48 6 -3 10 -14 10 -24 0 -10 8 -33 17 -51 13 -26 13 -35 4 -38
-8 -3 -2 -12 16 -24 l28 -20 -30 6 c-103 20 -131 28 -147 43 -16 15 -18 15
-13 1 7 -18 97 -55 156 -64 37 -6 38 -8 49 -63 31 -159 45 -207 84 -288 24
-48 65 -114 90 -147 25 -32 46 -65 46 -72 0 -8 4 -14 8 -14 4 0 9 -10 9 -22 1
-13 8 -50 17 -83 12 -48 15 -123 16 -366 l0 -306 25 -11 c20 -9 27 -9 31 1 2
7 1 127 -3 265 -7 214 -6 250 6 235 12 -16 13 -15 8 12 -3 17 -8 41 -12 55
l-7 25 26 -28 26 -28 1 28 1 28 11 -32 c7 -17 16 -35 21 -40 5 -5 6 -3 2 5 -4
6 -3 12 1 12 7 0 43 -71 43 -86 0 -3 11 -30 25 -60 14 -30 25 -60 25 -67 0
-22 21 -87 28 -87 4 0 7 27 6 60 0 32 3 57 8 54 4 -3 8 2 8 12 0 13 3 14 14 5
11 -9 15 -9 19 1 3 8 9 4 15 -12 6 -14 11 -20 11 -13 1 7 7 10 15 7 7 -3 16 2
20 11 4 11 12 14 27 10 14 -5 19 -3 15 4 -4 6 8 3 26 -7 18 -9 34 -20 36 -24
2 -4 26 -20 53 -34 27 -15 49 -30 49 -33 0 -9 159 -13 173 -4 19 12 97 31 91
21 -9 -14 6 -9 68 24 42 23 62 29 65 21 3 -9 10 -10 22 -4 25 14 44 -3 43 -38
0 -17 5 -43 13 -57 l13 -26 12 39 c22 67 27 56 23 -52 -2 -59 1 -104 6 -101 4
3 11 -26 13 -65 3 -38 7 -72 10 -74 2 -2 14 -1 27 2 22 6 23 9 17 57 -20 163
-26 261 -17 314 13 83 14 86 34 100 9 7 17 20 17 28 0 8 4 14 10 14 5 0 7 6 4
14 -3 8 0 17 7 22 8 5 10 3 4 -7 -6 -11 -5 -12 6 -2 27 26 26 41 15 -340 -6
-190 -5 -193 45 -167 18 10 19 24 19 303 0 237 3 308 17 374 12 59 22 84 34
88 10 3 48 38 86 78 94 99 147 207 179 364 13 65 23 128 24 141 0 15 12 29 35
43 41 25 45 32 9 19 -14 -6 -27 -10 -28 -10 -7 0 7 51 15 56 5 3 9 17 9 31 0
26 29 83 42 83 4 0 8 7 8 16 0 10 6 14 15 10 19 -7 19 -1 -1 18 -8 9 -14 22
-11 29 2 7 13 -3 25 -23 12 -19 22 -29 22 -21 0 7 6 11 14 8 11 -4 11 1 0 31
-8 25 -18 37 -31 37 -15 0 -18 9 -20 50 -1 28 -5 80 -8 116 -7 60 -5 71 22
130 21 44 45 76 76 102 71 58 76 54 67 -68 -4 -55 0 -158 6 -153 3 3 6 75 7
159 2 149 1 156 -25 204 -38 72 -39 87 -11 173 35 110 34 311 -3 492 -113 550
-129 605 -228 762 -131 208 -316 358 -566 460 -136 55 -167 58 -395 41z m60
-244 c55 -4 113 -12 129 -18 l29 -12 -22 -23 -21 -23 55 -15 56 -16 -6 29 -7
29 44 -6 c67 -10 161 -49 198 -83 19 -17 48 -37 65 -45 16 -8 43 -35 59 -58
17 -25 70 -74 124 -113 113 -84 161 -140 197 -235 23 -59 25 -76 16 -96 -9
-20 -7 -33 9 -66 11 -23 20 -51 20 -62 0 -10 6 -27 14 -35 23 -27 28 -148 8
-205 -26 -76 -44 -73 -38 5 5 62 5 63 -6 21 -9 -33 -15 -42 -27 -37 -9 4 -21
9 -27 11 -7 3 -16 -17 -22 -48 -11 -51 -11 -51 -6 29 4 79 -19 213 -36 213
-18 0 -99 75 -116 105 -32 60 -35 38 -3 -31 16 -37 28 -69 26 -71 -2 -2 -12
15 -22 38 -16 34 -20 38 -26 23 -15 -37 -10 -72 11 -79 22 -7 26 -20 9 -30 -6
-4 6 -21 30 -42 25 -21 41 -43 41 -56 -1 -19 -7 -15 -44 25 -35 38 -42 42 -38
23 4 -22 81 -85 82 -68 1 10 69 -119 70 -132 0 -5 -30 20 -67 55 l-67 65 43
-52 c24 -29 46 -55 51 -58 4 -2 5 -15 3 -28 -3 -16 1 -26 11 -30 17 -7 22 8 6
18 -17 10 -11 24 9 22 17 -1 19 -10 20 -95 1 -91 1 -93 -20 -87 -21 7 -22 5
-16 -46 l7 -54 -35 65 c-29 53 -34 59 -29 31 3 -18 2 -31 -2 -28 -11 6 -12
-74 -1 -90 18 -28 30 -140 16 -148 -16 -10 -10 -27 7 -21 13 5 14 4 6 -7 -9
-10 -7 -16 8 -27 10 -7 17 -22 15 -32 -2 -10 0 -16 6 -13 5 4 9 -6 10 -22 1
-27 1 -27 8 -4 l6 24 13 -27 c6 -15 12 -45 12 -67 0 -22 5 -60 11 -84 10 -39
8 -54 -19 -137 -16 -51 -30 -113 -31 -137 -1 -23 -8 -62 -16 -85 -14 -43 -15
-330 0 -371 3 -11 -5 -2 -19 20 -33 51 -34 31 -6 -91 19 -82 20 -89 4 -144
-13 -48 -23 -63 -60 -91 -48 -36 -60 -51 -17 -24 l26 18 -20 -29 c-22 -31 -81
-88 -69 -67 4 7 2 13 -4 13 -7 0 -10 6 -7 14 12 30 19 91 11 83 -5 -5 -9 -12
-9 -15 0 -4 -20 -48 -45 -97 -44 -87 -89 -144 -204 -253 -27 -26 -74 -73 -105
-105 -49 -52 -76 -69 -166 -106 -59 -25 -290 -48 -301 -30 -3 5 -16 9 -30 9
-14 0 -22 4 -19 10 4 6 -5 10 -19 10 -14 0 -26 4 -26 9 0 5 -9 11 -19 14 -11
2 -32 23 -48 46 -15 22 -33 40 -39 41 -7 0 -20 12 -30 27 -9 15 -38 48 -63 72
-25 25 -55 60 -66 77 -11 18 -84 84 -162 147 -78 63 -139 117 -136 121 4 3 0
6 -8 6 -8 0 -26 21 -39 48 -19 39 -24 66 -27 160 -2 61 -2 112 0 112 3 0 64
-70 137 -155 73 -85 134 -155 135 -155 2 0 -61 94 -139 210 l-143 209 -2 72
c-2 63 0 71 15 65 13 -5 15 -2 9 11 -5 10 -9 38 -11 63 -4 69 -9 91 -31 140
-37 82 -45 120 -46 228 0 82 3 114 16 139 15 28 15 32 2 27 -10 -4 -15 0 -15
11 0 12 5 15 16 11 14 -5 16 -1 11 29 -4 22 -2 33 4 29 5 -3 17 0 25 7 12 10
12 14 2 20 -10 6 -8 9 6 9 11 0 16 -5 13 -13 -3 -8 -1 -20 3 -27 7 -11 12 -7
21 14 11 23 10 32 -6 62 -15 28 -16 39 -7 60 7 14 9 36 6 50 -3 13 -2 30 3 37
6 6 13 22 16 35 5 20 3 21 -10 10 -15 -12 -16 -8 -10 31 7 54 -8 37 -24 -27
l-12 -43 -18 29 c-9 17 -22 33 -28 36 -6 4 -11 24 -11 45 0 27 -7 44 -25 61
-19 18 -25 34 -25 66 l0 43 -47 -26 -46 -27 6 100 c9 135 13 160 47 296 34
133 48 168 66 168 7 0 20 3 28 6 14 5 15 2 6 -21 -13 -34 -13 -38 2 -29 8 5 9
-3 5 -31 -6 -37 -6 -37 13 -20 11 10 20 29 20 42 0 14 9 36 20 50 11 14 20 34
20 43 0 10 18 40 40 66 22 27 40 53 40 59 0 5 5 3 10 -5 8 -12 10 -10 10 10 0
31 20 66 20 36 0 -11 3 -17 6 -14 3 3 -2 29 -10 58 -8 28 -13 65 -9 81 4 21
-2 46 -17 80 l-23 49 23 25 c18 19 22 31 17 59 -5 31 -2 38 24 56 l29 21 -10
-26 c-6 -14 -15 -35 -20 -46 -16 -29 -4 -23 61 31 66 55 131 91 194 109 35 10
43 8 68 -10 19 -14 39 -19 65 -17 34 3 37 6 40 35 3 35 15 40 112 45 38 3 53
-3 95 -32 46 -33 56 -35 150 -41z m650 -235 c36 -21 45 -31 45 -52 l0 -27 -25
30 c-13 17 -25 35 -26 40 0 6 -4 0 -7 -12 -7 -21 -9 -20 -41 19 -29 34 -31 39
-13 34 12 -4 42 -19 67 -32z m-1700 -243 l-27 -26 17 40 c9 22 20 47 23 55 5
10 8 5 10 -14 3 -21 -4 -36 -23 -55z m215 38 c0 -3 -7 -12 -15 -19 -14 -12
-16 -8 -13 24 2 33 4 36 15 20 7 -10 13 -21 13 -25z m-170 -163 c0 -2 -8 -10
-17 -17 -16 -13 -17 -12 -4 4 13 16 21 21 21 13z m1880 -614 c0 -8 -1 -13 -3
-11 -1 2 -9 12 -16 22 -12 15 -12 17 3 11 9 -3 16 -13 16 -22z m-1871 -227 c0
-5 -6 1 -14 15 -8 14 -14 30 -14 35 0 6 6 -1 14 -15 8 -14 14 -29 14 -35z m29
-60 c-3 -3 -9 2 -12 12 -6 14 -5 15 5 6 7 -7 10 -15 7 -18z m-306 -212 c6 -26
13 -42 16 -34 7 20 55 -67 58 -105 3 -46 -18 -49 -46 -5 -14 20 -33 43 -42 52
-10 9 -14 20 -10 24 4 5 2 5 -4 2 -15 -9 -49 29 -35 38 6 3 11 17 11 31 0 17
4 23 12 18 8 -5 9 -2 5 9 -4 11 -1 17 8 17 9 0 19 -18 27 -47z m2398 -6 c0
-10 -7 -20 -15 -23 -8 -4 -12 -11 -8 -17 3 -5 1 -7 -5 -3 -6 3 -26 -18 -47
-51 l-36 -58 6 40 c15 97 23 119 47 134 11 7 17 8 14 2 -4 -6 -3 -19 3 -28 9
-15 11 -13 17 15 5 24 9 30 15 20 5 -7 9 -21 9 -31z m-2481 -31 c-14 -16 -22
1 -14 31 l8 28 7 -25 c4 -14 3 -29 -1 -34z m408 -568 c-3 -7 -5 -2 -5 12 0 14
2 19 5 13 2 -7 2 -19 0 -25z m1760 -325 c-3 -10 -5 -2 -5 17 0 19 2 27 5 18 2
-10 2 -26 0 -35z m-10 -85 c-2 -13 -4 -3 -4 22 0 25 2 35 4 23 2 -13 2 -33 0
-45z m-57 -231 c0 -1 -33 -34 -72 -72 l-73 -70 70 73 c64 67 75 77 75 69z"/>
<path d="M3101 3650 c-6 -19 -7 -40 -2 -54 7 -18 3 -30 -25 -62 l-35 -39 21
43 c12 24 19 46 17 48 -10 10 -74 -95 -81 -131 -6 -39 -6 -39 8 -14 8 14 39
41 68 61 46 30 56 42 70 89 l18 54 -25 -30 -25 -30 6 48 c7 54 1 61 -15 17z"/>
<path d="M1560 3621 c0 -11 5 -23 10 -26 6 -3 10 3 10 14 0 11 -4 23 -10 26
-5 3 -10 -3 -10 -14z"/>
<path d="M1467 2671 c-4 -17 -3 -21 5 -13 5 5 8 16 6 23 -3 8 -7 3 -11 -10z"/>
<path d="M2372 2291 c-6 -16 -7 -32 -4 -36 4 -3 0 -10 -8 -15 -13 -8 -13 -14
-1 -42 21 -53 34 -181 17 -170 -5 3 -6 -3 -3 -12 5 -13 3 -17 -7 -13 -20 8
-13 -25 13 -62 12 -16 21 -34 21 -40 0 -6 9 -26 20 -46 11 -19 20 -38 20 -43
0 -4 3 -15 6 -26 4 -11 -2 -30 -15 -47 -12 -15 -21 -32 -21 -37 0 -4 -17 -17
-37 -28 -20 -10 -45 -23 -55 -29 -10 -5 -18 -13 -18 -17 0 -5 -16 -8 -36 -8
-21 0 -33 4 -29 10 3 6 -3 10 -13 10 -11 0 -25 7 -33 16 -7 8 -26 22 -42 30
-16 9 -26 18 -23 21 3 4 -2 12 -13 19 -11 8 -17 23 -16 39 7 60 17 105 24 105
11 0 53 129 45 141 -3 5 -10 6 -16 3 -8 -5 -9 -1 -4 12 9 23 26 172 26 232 0
23 -4 42 -10 42 -5 0 -25 -13 -43 -30 l-34 -29 -6 -143 c-5 -107 -12 -158 -27
-203 -23 -67 -38 -193 -24 -203 5 -4 15 -20 22 -36 8 -18 16 -26 20 -19 13 20
70 8 101 -21 16 -15 45 -31 65 -36 38 -8 34 -10 159 59 53 29 57 30 57 11 0
-27 27 -15 45 21 20 38 19 75 -5 144 -11 32 -20 71 -20 87 0 18 -4 27 -11 23
-7 -5 -8 4 -4 28 4 20 2 44 -4 56 -8 14 -8 21 -1 21 5 0 10 5 10 11 0 5 -3 8
-7 6 -5 -3 -7 18 -7 46 1 28 -5 65 -12 83 -7 18 -15 47 -18 66 -5 44 -16 78
-26 78 -5 0 -13 -13 -18 -29z"/>
<path d="M2095 2290 c-3 -5 -2 -10 4 -10 5 0 13 5 16 10 3 6 2 10 -4 10 -5 0
-13 -4 -16 -10z"/>
<path d="M3091 1744 c-7 -16 -15 -67 -17 -114 l-3 -85 19 105 c21 114 22 138
1 94z"/>
<path d="M1466 1690 c29 -43 37 -50 27 -22 -11 28 -35 62 -44 62 -5 0 3 -18
17 -40z"/>
<path d="M1633 1465 c0 -8 3 -15 7 -15 4 0 15 -18 25 -40 10 -22 20 -38 22
-36 4 4 -44 106 -51 106 -1 0 -3 -7 -3 -15z"/>
<path d="M1675 1240 c52 -104 64 -140 48 -140 -5 0 -48 11 -97 25 -49 14 -91
23 -93 21 -4 -4 184 -76 198 -76 11 0 2 144 -12 187 -5 17 -17 34 -25 37 -9 3
-12 11 -8 17 4 7 3 9 -3 6 -6 -4 -18 2 -28 13 -39 43 -33 15 20 -90z"/>
<path d="M2855 1287 c-11 -18 -20 -39 -20 -47 -1 -8 -5 -51 -9 -95 -5 -44 -6
-78 -3 -75 7 7 59 242 54 246 -2 2 -12 -11 -22 -29z"/>
<path d="M2984 1108 l-19 -23 23 19 c21 18 27 26 19 26 -2 0 -12 -10 -23 -22z"/>
<path d="M1101 2260 c14 -31 19 -36 19 -24 0 6 -7 19 -16 30 -14 18 -14 18 -3
-6z"/>
<path d="M3492 2030 c0 -14 2 -19 5 -12 2 6 2 18 0 25 -3 6 -5 1 -5 -13z"/>
<path d="M1110 1993 c0 -5 5 -15 10 -23 8 -12 10 -11 10 8 0 12 -4 22 -10 22
-5 0 -10 -3 -10 -7z"/>
<path d="M970 1972 c0 -12 4 -22 9 -22 10 0 9 26 -2 36 -4 4 -7 -2 -7 -14z"/>
<path d="M3493 1945 c0 -27 2 -38 4 -22 2 15 2 37 0 50 -2 12 -4 0 -4 -28z"/>
<path d="M3387 1929 c4 -13 8 -18 11 -10 2 7 -1 18 -6 23 -8 8 -9 4 -5 -13z"/>
<path d="M981 1894 c0 -11 3 -14 6 -6 3 7 2 16 -1 19 -3 4 -6 -2 -5 -13z"/>
<path d="M3476 1847 c-5 -31 -11 -45 -18 -41 -7 5 -9 1 -5 -9 4 -11 1 -15 -14
-12 -10 2 -24 7 -29 10 -6 3 -7 -1 -4 -9 3 -9 10 -16 14 -16 4 0 4 -16 0 -35
-5 -20 -4 -33 1 -29 5 3 9 0 9 -6 0 -11 -11 -27 -45 -62 l-20 -20 32 16 c24
12 35 28 48 66 9 27 13 55 9 61 -4 7 -3 9 4 5 11 -7 37 94 29 117 -2 6 -7 -9
-11 -36z"/>
<path d="M1016 1783 c14 -32 30 -70 36 -85 15 -42 26 -33 18 13 -4 23 -7 49
-5 58 4 24 -5 33 -20 21 -11 -9 -17 -5 -30 19 -27 53 -26 34 1 -26z"/>
<path d="M1882 500 c0 -14 2 -19 5 -12 2 6 2 18 0 25 -3 6 -5 1 -5 -13z"/>
<path d="M1784 323 c-5 -69 -10 -99 -14 -83 l-7 25 -6 -25 c-10 -43 -5 -60 18
-60 20 0 21 5 24 125 1 69 0 125 -2 125 -3 0 -9 -48 -13 -107z"/>
<path d="M2672 260 c0 -14 2 -19 5 -12 2 6 2 18 0 25 -3 6 -5 1 -5 -13z"/>
</g>
</svg>
