<svg xmlns="http://www.w3.org/2000/svg" width="343.869" height="38.008" overflow="visible"><switch><g><g fill="#fff"><path d="M183.685 1.707C181.133.637 177.64 0 174.579 0c-7.651 0-14.337 4.132-14.337 11.989 0 12.142 15.41 10.61 15.41 16.273 0 1.837-1.788 2.856-4.846 2.856-5.103 0-7.93-2.175-9.92-4.063l-1.754 8.289c3.522 1.122 7.847 2.662 11.674 2.662 10.712 0 15.558-5.612 15.558-12.499 0-12.194-15.917-10.714-15.917-16.478 0-1.582 1.837-2.654 4.132-2.654 3.317 0 5.937 1.918 7.671 3.142l1.435-7.81"/><path d="M183.685 1.707C181.133.637 177.64 0 174.579 0c-7.651 0-14.337 4.132-14.337 11.989 0 12.142 15.41 10.61 15.41 16.273 0 1.837-1.788 2.856-4.846 2.856-5.103 0-7.93-2.175-9.92-4.063l-1.754 8.289c3.522 1.122 7.847 2.662 11.674 2.662 10.712 0 15.558-5.612 15.558-12.499 0-12.194-15.917-10.714-15.917-16.478 0-1.582 1.837-2.654 4.132-2.654 3.317 0 5.937 1.918 7.671 3.142l1.435-7.81M143.75 24.067l1.409-6.853h11.931l-1.409 6.853H143.75z"/><path d="M143.75 24.067l1.409-6.853h11.931l-1.409 6.853H143.75z"/><path fill-rule="evenodd" clip-rule="evenodd" d="M126.599 12.877l-2.913 11.331h5.826l-2.739-11.332-.174.001zM133.163.624l-.45 3.312 7.258 27.292 2.884 6.251h-10.356l-1.677-6.251h-8.571l-1.672 6.251h-10.233l2.939-6.251 7.129-27.292-.453-3.312h13.202z"/><path d="M256.655 15.575L250.622.538h-10.306c.203 3.035 1.162 3.441 1.162 7.589l-.638 20.466c0 4.147-.96 5.817-1.162 8.854h9.735c-.205-3.037-.205-4.707-.205-8.854l.108-13.513h.186l7.05 15.421h.45l7.128-15.421.216.036v13.477c0 4.147 0 5.817-.206 8.854h9.738c-.205-3.037-1.164-4.707-1.164-8.854l-.639-20.466c0-4.148.96-4.554 1.162-7.589h-10.304l-6.278 15.037M45.804 37.445c-.205-3.062-1.48-4.745-1.48-8.928V7.12c1.532 0 6.443.224 8.995.99L51.838.547H28.135l-1.458 7.505c2.551-.765 7.443-.932 8.972-.932v21.397c0 4.183-1.276 5.866-1.48 8.928h11.635"/><path d="M45.804 37.445c-.205-3.062-1.48-4.745-1.48-8.928V7.12c1.532 0 6.443.224 8.995.99L51.838.547H28.135l-1.458 7.505c2.551-.765 7.443-.932 8.972-.932v21.397c0 4.183-1.276 5.866-1.48 8.928h11.635M234.093 37.448c-.208-3.037-1.171-4.707-1.171-8.854V9.393c0-4.15.963-5.819 1.171-8.854H222.39c.205 3.035 1.167 4.704 1.167 8.854v19.201c0 4.147-.962 5.817-1.167 8.854h11.703"/><path d="M234.093 37.448c-.208-3.037-1.171-4.707-1.171-8.854V9.393c0-4.15.963-5.819 1.171-8.854H222.39c.205 3.035 1.167 4.704 1.167 8.854v19.201c0 4.147-.962 5.817-1.167 8.854h11.703M23.781 37.445l1.515-7.666c-2.805.664-7.893.837-10.698.837h-3.622V20.495h3.622c1.529 0 3.57 0 5.103.202v-6.785c-1.532.205-3.573.205-5.103.205h-3.622V7.12h3.622c2.805 0 5.612.225 8.42.887l1.353-7.46H0c.205 3.06 1.478 5.064 1.478 9.246v18.725c0 4.183-1.273 5.866-1.478 8.928h23.781"/><path d="M23.781 37.445l1.515-7.666c-2.805.664-7.893.837-10.698.837h-3.622V20.495h3.622c1.529 0 3.57 0 5.103.202v-6.785c-1.532.205-3.573.205-5.103.205h-3.622V7.12h3.622c2.805 0 5.612.225 8.42.887l1.353-7.46H0c.205 3.06 1.478 5.064 1.478 9.246v18.725c0 4.183-1.273 5.866-1.478 8.928h23.781M107.761 37.445l1.529-7.637c-3.062.663-7.492.874-11.12.808h-3.625V9.792c0-4.182.959-6.17 1.213-9.246H84.395c.205 3.06 1.159 5.064 1.159 9.246v18.725c0 4.183-.954 5.866-1.159 8.928h23.366"/><path d="M107.761 37.445l1.529-7.637c-3.062.663-7.492.874-11.12.808h-3.625V9.792c0-4.182.959-6.17 1.213-9.246H84.395c.205 3.06 1.159 5.064 1.159 9.246v18.725c0 4.183-.954 5.866-1.159 8.928h23.366M79.542 37.445l1.515-7.666c-2.808.664-7.893.837-10.698.837h-3.622V20.495h3.622c1.529 0 3.571 0 5.103.202v-6.785c-1.532.205-3.574.205-5.103.205h-3.622V7.12h3.622c2.805 0 5.612.225 8.417.887l1.355-7.46h-24.37c.202 3.06 1.478 5.064 1.478 9.246v18.725c0 4.183-1.276 5.866-1.478 8.928h23.781"/><path d="M79.542 37.445l1.515-7.666c-2.808.664-7.893.837-10.698.837h-3.622V20.495h3.622c1.529 0 3.571 0 5.103.202v-6.785c-1.532.205-3.574.205-5.103.205h-3.622V7.12h3.622c2.805 0 5.612.225 8.417.887l1.355-7.46h-24.37c.202 3.06 1.478 5.064 1.478 9.246v18.725c0 4.183-1.276 5.866-1.478 8.928h23.781M110.719.534h5.877v5.862h-5.877V.534zM135.634.534h5.88v5.862h-5.88V.534z"/><path fill-rule="evenodd" clip-rule="evenodd" d="M202.597 12.845l-2.913 11.329h5.826l-2.739-11.329h-.174zM209.16.591l-.452 3.312 7.258 27.293 2.885 6.25h-10.356l-1.674-6.25h-8.571l-1.674 6.25h-10.231l2.939-6.25 7.127-27.293-.453-3.312h13.202zM293.583 12.848l-2.912 11.328h5.826l-2.74-11.33-.174.002zM300.147.594l-.45 3.31 7.258 27.294 2.882 6.25h-10.354l-1.678-6.25h-8.57l-1.671 6.25H277.33l2.939-6.25 7.126-27.294-.449-3.31h13.201zM327.616 12.848l-2.913 11.328h5.826l-2.74-11.33-.173.002zM334.18.594l-.453 3.31 7.259 27.294 2.884 6.25h-10.356l-1.674-6.25h-8.57l-1.675 6.25h-10.231l2.939-6.25 7.127-27.294-.453-3.31h13.203z"/></g></g></switch></svg>